<svg preserveAspectRatio="none" overflow="visible" style="display: block;" width="229.046" height="66.284" viewBox="0 0 229.046 66.284" fill="none" xmlns="http://www.w3.org/2000/svg">
<path id="Vector 328" d="M0 66.284V19.6632L4.83656 18.429L10.0186 18.8309L14.5097 16.9079L24.1828 16.0755L28.6739 16.9079H33.165L42.8381 14.497H47.6747L52.5112 15.3006L57.0023 14.2717L62.1843 14.906L71.1665 12.6859L76.3485 14.2717L80.8396 12.0244H86.0217L90.5128 12.6859L95.6948 12.3688L100.531 11.3111L105.022 12.0244L109.859 11.3111L114.696 9.51445L119.532 8.56301L128.514 7.29441L133.696 6.66012H138.187L143.024 7.61156L152.352 4.75723L157.188 5.77181H162.025L166.861 5.02558H176.189L181.371 3.80578L185.862 4.22195L190.699 2.22004L200.372 3.17148L204.863 0.634297L209.699 1.40923L214.722 0.634297L219.373 1.02176L223.864 0L229.046 0.634297V66.284H0Z" fill="url(#paint0_linear_0_111)"/>
<defs>
<linearGradient id="paint0_linear_0_111" x1="114.523" y1="0.634297" x2="114.523" y2="66.284" gradientUnits="userSpaceOnUse">
<stop stop-color="#FFEFEA"/>
<stop offset="1" stop-color="white"/>
</linearGradient>
</defs>
</svg>
