<svg preserveAspectRatio="none" overflow="visible" style="display: block;" width="40" height="40" viewBox="0 0 40 40" fill="none" xmlns="http://www.w3.org/2000/svg">
<g id="logoipsum-407 1" clip-path="url(#clip0_0_26)">
<path id="Vector" fill-rule="evenodd" clip-rule="evenodd" d="M13.8776 0C14.3284 0 14.6939 0.447715 14.6939 1V8.39648C14.6939 8.61918 14.9137 8.7307 15.0423 8.57324L21.5625 0.585938C21.8687 0.210936 22.2839 7.97938e-05 22.7168 0H29.866C30.0825 4.04019e-05 30.2902 0.105468 30.4433 0.292969L32.8922 3.29297C33.2109 3.68347 33.2109 4.31653 32.8922 4.70703L29.7362 8.57324C29.6076 8.73073 29.6986 8.99997 29.8804 9H36.3967C36.6131 9.00004 36.8208 9.10547 36.9739 9.29297L39.4229 12.293C39.7416 12.6835 39.7416 13.3165 39.4229 13.707L36.2069 17.6465C36.0476 17.8417 36.0476 18.1583 36.2069 18.3535L38.8456 21.5859C39.5848 22.4914 40 23.7195 40 25C40 26.2805 39.5847 27.5086 38.8456 28.4141L29.866 39.4141C29.5599 39.7891 29.1447 39.9999 28.7118 40H26.1224C25.6716 40 25.3061 39.5523 25.3061 39V31.6035C25.3061 31.3808 25.0863 31.2693 24.9577 31.4268L18.4375 39.4141C18.1313 39.7891 17.7161 39.9999 17.2832 40H10.134C9.91747 40 9.7098 39.8945 9.55673 39.707L7.10778 36.707C6.78907 36.3165 6.78907 35.6835 7.10778 35.293L10.2638 31.4268C10.3924 31.2693 10.3014 31 10.1196 31H3.60331C3.38686 31 3.17921 30.8945 3.02615 30.707L0.577168 27.707C0.258454 27.3165 0.258455 26.6835 0.577168 26.293L3.79305 22.3535C3.95241 22.1583 3.95241 21.8417 3.79305 21.6465L1.15433 18.4141C0.415226 17.5086 0 16.2805 0 15C0 13.7195 0.415225 12.4914 1.15433 11.5859L10.134 0.585938C10.4401 0.210936 10.8553 8.00463e-05 11.2882 0H13.8776ZM16.3847 9C15.3022 9 14.2635 9.52716 13.4981 10.4648L4.77838 21.1465C4.52131 21.4615 4.70339 21.9999 5.06696 22H16.9739C17.3374 22.0001 17.5194 22.5386 17.2624 22.8535L11.309 30.1465C11.0519 30.4615 11.234 30.9999 11.5976 31H23.6153C24.6978 31 25.7365 30.4728 26.5019 29.5352L35.2216 18.8535C35.4626 18.5583 35.3177 18.0663 34.9992 18.0059L34.9331 18H23.0261C22.6625 18 22.4805 17.4615 22.7376 17.1465L28.691 9.85352C28.9481 9.53855 28.766 9.00006 28.4024 9H16.3847Z" fill="#8B6251"/>
</g>
<defs>
<clipPath id="clip0_0_26">
<rect width="40" height="40" fill="white"/>
</clipPath>
</defs>
</svg>
